<?xml version="1.0" standalone="no"?>
<!DOCTYPE svg PUBLIC "-//W3C//DTD SVG 20010904//EN"
 "http://www.w3.org/TR/2001/REC-SVG-20010904/DTD/svg10.dtd">
<svg version="1.0" xmlns="http://www.w3.org/2000/svg"
 width="700.000000pt" height="700.000000pt" viewBox="0 0 700.000000 700.000000"
 preserveAspectRatio="xMidYMid meet">
<metadata>
Created by potrace 1.14, written by Peter Selinger 2001-2017
</metadata>
<g transform="translate(0.000000,700.000000) scale(0.100000,-0.100000)"
fill="#000000" stroke="none">
<path d="M1880 6989 c-284 -29 -606 -136 -851 -282 -581 -346 -951 -930 -1019
-1606 -14 -145 -14 -3059 1 -3207 82 -831 642 -1529 1438 -1790 124 -41 308
-79 450 -94 141 -14 3061 -14 3202 0 636 64 1197 400 1547 926 164 245 267
508 324 821 l23 128 0 1615 0 1615 -23 128 c-57 313 -160 576 -324 821 -350
525 -914 863 -1542 925 -133 13 -3096 13 -3226 0z m2679 -944 c576 -58 983
-181 1296 -389 283 -189 436 -385 506 -646 19 -69 23 -112 23 -225 1 -129 -2
-145 -26 -208 -79 -199 -281 -402 -593 -598 -345 -217 -795 -388 -1275 -485
-96 -19 -189 -40 -207 -45 -40 -13 -83 -46 -83 -65 0 -31 242 -337 750 -949
582 -700 754 -945 753 -1071 -1 -108 -72 -208 -213 -303 -142 -95 -261 -131
-439 -131 -204 0 -443 55 -618 144 -179 90 -465 307 -659 501 -179 178 -500
577 -773 958 -34 48 -65 87 -69 86 -4 0 -36 -37 -72 -82 -121 -152 -523 -641
-628 -764 -143 -169 -278 -288 -339 -301 -100 -22 -153 29 -153 143 1 94 34
173 139 330 234 348 496 709 619 852 83 95 142 189 142 225 0 20 -14 38 -63
77 -124 98 -169 213 -118 297 32 52 90 71 373 125 144 27 272 53 284 58 11 5
67 69 124 143 347 446 581 731 644 782 23 20 68 47 100 62 48 22 68 26 118 22
79 -6 108 -35 108 -106 0 -74 -39 -142 -273 -471 -119 -168 -215 -306 -213
-308 10 -10 525 115 787 191 299 87 727 243 962 350 113 51 256 138 314 190
49 44 103 131 103 165 0 9 -5 33 -11 54 -74 267 -854 311 -2039 116 -991 -163
-1935 -454 -2141 -660 -63 -63 -63 -114 1 -103 65 11 792 84 836 84 122 -1
207 -96 141 -158 -73 -68 -486 -201 -774 -248 -131 -22 -411 -25 -527 -5 -499
82 -766 331 -766 714 0 383 234 709 728 1019 553 346 1351 578 2232 647 172
14 806 5 989 -14z"/>
</g>
</svg>
