<svg width="30" height="27" viewBox="0 0 30 27" fill="none" xmlns="http://www.w3.org/2000/svg">
<path d="M5.56425 10.8543L9.98883 10.3794C10.1899 10.3794 10.3799 10.4359 10.5587 10.549C10.7598 10.6621 10.8603 10.809 10.8603 10.9899C10.8603 11.1709 10.648 11.3518 10.2235 11.5327C8.34637 12.2789 6.69274 12.652 5.26257 12.652C3.8324 12.652 2.59218 12.3354 1.5419 11.7023C0.513966 11.0465 0 10.0741 0 8.78518C0 7.0892 0.916201 5.55151 2.7486 4.17211C4.58101 2.79271 6.83799 1.75251 9.51955 1.05151C12.2011 0.350502 14.8156 0 17.3631 0C19.9106 0 22.067 0.237437 23.8324 0.71231C25.6201 1.16457 27.095 1.92211 28.257 2.98492C29.419 4.04774 30 5.34799 30 6.88568C30 7.92588 29.3855 8.95477 28.1564 9.97236C26.9497 10.9673 25.5419 11.7814 23.933 12.4146C22.3464 13.0251 20.7821 13.4548 19.2402 13.7035C18.838 13.8392 18.6369 13.9749 18.6369 14.1106C18.6369 14.2915 19.933 15.9535 22.5251 19.0967C25.1397 22.2173 26.4469 24.0716 26.4469 24.6595C26.4469 25.2475 26.1006 25.7789 25.4078 26.2538C24.7374 26.7513 23.9777 27 23.1285 27C22.3017 27 21.5531 26.8869 20.8827 26.6608C20.2123 26.4573 19.5531 26.1294 18.905 25.6771C18.2793 25.2249 17.7207 24.7952 17.2291 24.3882C16.7374 23.9812 16.1899 23.4271 15.5866 22.7261C15.0056 22.0025 14.5698 21.4598 14.2793 21.098C13.2737 19.7864 12.5363 18.7801 12.067 18.0791C9.47486 21.3128 8.06704 23.0314 7.84358 23.2349C7.64246 23.4158 7.48603 23.5628 7.3743 23.6759C7.26257 23.7663 7.17318 23.8455 7.10615 23.9133C6.92737 24.0942 6.70391 24.1847 6.43575 24.1847C6.1676 24.1847 5.8771 23.902 5.56425 23.3367C5.67598 23.0427 6.31285 22.0477 7.47486 20.3518C8.63687 18.6558 9.51955 17.4799 10.1229 16.8241C10.4134 16.3945 10.5587 16.1231 10.5587 16.01C10.5587 15.897 10.4246 15.75 10.1564 15.5691C9.7095 15.2073 9.48603 14.8229 9.48603 14.4158C9.48603 13.9862 9.79888 13.7148 10.4246 13.6018L13.0726 13.093C15.1285 10.402 16.3687 8.84171 16.7933 8.41206C17.2179 7.98241 17.6425 7.76759 18.067 7.76759C18.4916 7.76759 18.7039 7.9711 18.7039 8.37814C18.7039 8.67211 18.4693 9.13568 18 9.76884L16.1229 12.4485C16.324 12.4485 17.2961 12.2224 19.0391 11.7701C20.8045 11.3178 22.6369 10.696 24.5363 9.90452C26.4358 9.11306 27.3855 8.37814 27.3855 7.69975C27.3855 6.70477 26 6.20728 23.2291 6.20728C21.1732 6.20728 18.7151 6.46734 15.8547 6.98744C13.0168 7.50754 10.5587 8.1407 8.48045 8.88693C6.42458 9.61055 5.39665 10.2437 5.39665 10.7864C5.39665 10.8317 5.45251 10.8543 5.56425 10.8543Z" fill="black"/>
</svg>
