<svg width="21" height="27" viewBox="0 0 21 27" fill="none" xmlns="http://www.w3.org/2000/svg">
<path d="M0 27V0H10.2121C16.4314 0 20.0402 2.62286 20.0402 7.13571C20.0402 10.53 18.0439 12.4586 14.9726 13.1143C18.543 13.5771 21 15.4671 21 19.3243C21 24.03 17.3144 27 10.7112 27H0ZM10.3656 4.55143H5.75868V11.1086H10.3656C12.8227 11.1086 14.2815 9.83571 14.2815 7.83C14.2815 5.82429 12.8611 4.55143 10.3656 4.55143ZM10.7495 15.5829H5.75868V22.41H10.7495C13.5137 22.41 15.0877 21.1371 15.0877 19.0543C15.0877 16.8557 13.4753 15.5829 10.7495 15.5829Z" fill="black"/>
</svg>
