<svg width="150" height="27" viewBox="0 0 150 27" fill="none" xmlns="http://www.w3.org/2000/svg">
<path d="M0 26.9995V0H9.96451C16.0331 0 19.5544 2.62281 19.5544 7.13559C19.5544 10.5298 17.6065 12.4584 14.6096 13.1141C18.0935 13.5769 20.4909 15.4669 20.4909 19.3239C20.4909 24.0296 16.8947 26.9995 10.4515 26.9995H0ZM10.1144 4.55135H5.61909V11.1084H10.1144C12.5118 11.1084 13.9353 9.83554 13.9353 7.82986C13.9353 5.82418 12.5493 4.55135 10.1144 4.55135ZM10.489 15.5826H5.61909V22.4096H10.489C13.1861 22.4096 14.722 21.1368 14.722 19.0539C14.722 16.8554 13.1487 15.5826 10.489 15.5826Z" fill="black"/>
<path d="M22.0176 26.9995V0H27.6367V26.9995H22.0176Z" fill="black"/>
<path d="M72.8655 0.000480337L82.418 0.000481197L82.418 27L72.8655 27C64.6991 27 59.2673 21.4844 59.2673 13.5388C59.2673 5.63181 64.6991 0.000479602 72.8655 0.000480337ZM76.7989 22.1787L76.7989 4.82182L72.8655 4.82182C67.8458 4.82182 65.0363 8.4089 65.0363 13.5388C65.0363 18.7073 67.8458 22.1787 72.8655 22.1787L76.7989 22.1787Z" fill="black"/>
<path d="M34.7947 10.8541L39.1431 10.3792C39.3408 10.3792 39.5274 10.4357 39.7031 10.5488C39.9008 10.6619 39.9996 10.8089 39.9996 10.9898C39.9996 11.1707 39.791 11.3516 39.3737 11.5325C37.5289 12.2787 35.9037 12.6518 34.4982 12.6518C33.0926 12.6518 31.8737 12.3352 30.8415 11.7021C29.8313 11.0463 29.3262 10.0739 29.3262 8.78502C29.3262 7.08907 30.2266 5.55141 32.0275 4.17204C33.8283 2.79266 36.0465 1.75248 38.6819 1.05149C41.3173 0.350496 43.8869 0 46.3905 0C48.8942 0 51.0135 0.237433 52.7485 0.712298C54.5054 1.16455 55.9549 1.92208 57.0969 2.98487C58.2389 4.04767 58.8099 5.34789 58.8099 6.88556C58.8099 7.92574 58.206 8.95461 56.9981 9.97218C55.8121 10.9671 54.4285 11.7812 52.8473 12.4144C51.288 13.0249 49.7507 13.4545 48.2353 13.7033C47.84 13.8389 47.6423 13.9746 47.6423 14.1103C47.6423 14.2912 48.9161 15.9532 51.4637 19.0964C54.0332 22.2169 55.318 24.0712 55.318 24.6591C55.318 25.247 54.9776 25.7784 54.2968 26.2533C53.6379 26.7508 52.8912 26.9995 52.0567 26.9995C51.2441 26.9995 50.5083 26.8865 49.8495 26.6603C49.1906 26.4568 48.5428 26.1289 47.9059 25.6767C47.2909 25.2244 46.7419 24.7948 46.2587 24.3878C45.7756 23.9807 45.2375 23.4267 44.6445 22.7257C44.0735 22.0021 43.6453 21.4594 43.3598 21.0976C42.3715 19.7861 41.6468 18.7798 41.1856 18.0788C38.638 21.3124 37.2544 23.031 37.0348 23.2345C36.8371 23.4154 36.6834 23.5624 36.5736 23.6755C36.4638 23.7659 36.3759 23.8451 36.31 23.9129C36.1343 24.0938 35.9147 24.1842 35.6512 24.1842C35.3876 24.1842 35.1021 23.9016 34.7947 23.3363C34.9045 23.0423 35.5304 22.0473 36.6724 20.3514C37.8144 18.6554 38.6819 17.4796 39.2749 16.8238C39.5604 16.3942 39.7031 16.1228 39.7031 16.0098C39.7031 15.8967 39.5714 15.7497 39.3078 15.5688C38.8686 15.207 38.649 14.8226 38.649 14.4156C38.649 13.9859 38.9564 13.7146 39.5714 13.6015L42.1738 13.0927C44.1943 10.4018 45.4132 8.84155 45.8305 8.41191C46.2478 7.98227 46.665 7.76745 47.0823 7.76745C47.4996 7.76745 47.7082 7.97096 47.7082 8.37799C47.7082 8.67196 47.4776 9.13552 47.0164 9.76867L45.1716 12.4483C45.3693 12.4483 46.3246 12.2221 48.0376 11.7699C49.7726 11.3176 51.5735 10.6958 53.4402 9.90435C55.307 9.1129 56.2404 8.37799 56.2404 7.69961C56.2404 6.70465 54.8787 6.20717 52.1555 6.20717C50.135 6.20717 47.7192 6.46722 44.9081 6.98731C42.1189 7.5074 39.7031 8.14056 37.6607 8.88678C35.6402 9.61038 34.63 10.2435 34.63 10.7862C34.63 10.8315 34.6849 10.8541 34.7947 10.8541Z" fill="black"/>
<path d="M100.143 26.9995L84.1094 26.9995L84.1094 0L89.7285 5.05794e-07L89.7285 22.0239L100.143 22.0239L100.143 26.9995Z" fill="#F25022"/>
<path d="M107.06 26.9995L101.254 26.9995L110.844 2.40647e-06L117.587 3.01343e-06L127.102 26.9995L121.071 26.9995L119.048 21.0982L109.083 21.0982L107.06 26.9995ZM114.028 6.17132L110.582 16.4311L117.512 16.4311L114.028 6.17132Z" fill="#F25022"/>
<path d="M129.508 26.9995L129.508 4.08653e-06L139.473 4.98347e-06C145.542 5.52973e-06 149.063 2.62282 149.063 7.13559C149.063 10.5298 147.115 12.4584 144.118 13.1141C147.602 13.5769 149.999 15.4669 149.999 19.3239C149.999 24.0296 146.403 26.9995 139.96 26.9995L129.508 26.9995ZM139.623 4.55135L135.127 4.55135L135.127 11.1084L139.623 11.1084C142.02 11.1084 143.444 9.83554 143.444 7.82987C143.444 5.82419 142.058 4.55135 139.623 4.55135ZM139.997 15.5826L135.127 15.5826L135.127 22.4096L139.997 22.4096C142.695 22.4096 144.23 21.1368 144.23 19.054C144.23 16.8554 142.657 15.5826 139.997 15.5826Z" fill="#F25022"/>
</svg>
