<svg width="20" height="27" viewBox="0 0 20 27" fill="none" xmlns="http://www.w3.org/2000/svg">
<path d="M-2.36041e-06 27L0 0L9.72577 8.50254e-07C15.649 1.36808e-06 19.0859 2.62286 19.0859 7.13572C19.0859 10.53 17.1846 12.4586 14.2596 13.1143C17.66 13.5771 20 15.4671 20 19.3243C20 24.03 16.4899 27 10.2011 27L-2.36041e-06 27ZM9.87203 4.55143L5.48446 4.55143L5.48446 11.1086L9.87203 11.1086C12.2121 11.1086 13.6015 9.83572 13.6015 7.83C13.6015 5.82429 12.2486 4.55143 9.87203 4.55143ZM10.2377 15.5829L5.48446 15.5829L5.48446 22.41L10.2377 22.41C12.8702 22.41 14.3693 21.1371 14.3693 19.0543C14.3693 16.8557 12.8336 15.5829 10.2377 15.5829Z" fill="#F25022"/>
</svg>
