<svg width="66" height="27" viewBox="0 0 66 27" fill="none" xmlns="http://www.w3.org/2000/svg">
<path d="M16.0599 27L-2.36041e-06 27L0 0L5.62847 4.92057e-07L5.62847 22.0243L16.0599 22.0243L16.0599 27Z" fill="#F25022"/>
<path d="M22.9894 27L17.1733 27L26.7792 2.34111e-06L33.5334 2.93158e-06L43.0643 27L37.023 27L34.9968 21.0986L25.0156 21.0986L22.9894 27ZM29.9687 6.17143L26.5166 16.4314L33.4583 16.4314L29.9687 6.17143Z" fill="#F25022"/>
<path d="M45.4748 27L45.4748 3.97554e-06L55.456 4.84812e-06C61.5347 5.37954e-06 65.0619 2.62286 65.0619 7.13572C65.0619 10.53 63.1107 12.4586 60.1089 13.1143C63.5985 13.5771 66 15.4671 66 19.3243C66 24.03 62.3978 27 55.9438 27L45.4748 27ZM55.6061 4.55143L51.1033 4.55143L51.1033 11.1086L55.6061 11.1086C58.0076 11.1086 59.4334 9.83572 59.4334 7.83001C59.4334 5.82429 58.0451 4.55143 55.6061 4.55143ZM55.9813 15.5829L51.1033 15.5829L51.1033 22.41L55.9813 22.41C58.683 22.41 60.2214 21.1371 60.2214 19.0543C60.2214 16.8557 58.6455 15.5829 55.9813 15.5829Z" fill="#F25022"/>
</svg>
