<svg width="170" height="42" viewBox="0 0 170 42" fill="none" xmlns="http://www.w3.org/2000/svg">
<g clip-path="url(#clip0_1001_59)">
<path d="M146.098 33.2168C144.983 33.2168 144.204 34.0713 144.129 35.2539H147.991C147.964 34.0645 147.219 33.2168 146.098 33.2168ZM147.964 37.3799H149.133C148.928 38.624 147.725 39.54 146.173 39.54C144.136 39.54 142.898 38.125 142.898 35.8896C142.898 33.6816 144.156 32.1846 146.118 32.1846C148.039 32.1846 149.222 33.5791 149.222 35.7324V36.1836H144.122V36.252C144.122 37.6123 144.922 38.5078 146.2 38.5078C147.103 38.5078 147.766 38.0498 147.964 37.3799Z" fill="black" fill-opacity="0.4"/>
<path d="M140.39 39.417V36.2178H136.883V39.417H135.707V32.3076H136.883V35.2402H140.39V32.3076H141.565V39.417H140.39Z" fill="black" fill-opacity="0.4"/>
<path d="M129.254 39.417H128.078V32.3076H129.254V37.5986H129.309L132.863 32.3076H134.039V39.417H132.863V34.126H132.809L129.254 39.417ZM128.987 29.2314H129.862C129.862 30.0244 130.375 30.6465 131.188 30.6465C132.002 30.6465 132.515 30.0244 132.515 29.2314H133.39C133.39 30.4893 132.494 31.3506 131.188 31.3506C129.883 31.3506 128.987 30.4893 128.987 29.2314Z" fill="black" fill-opacity="0.4"/>
<path d="M123.266 38.5283C124.387 38.5283 125.248 37.7422 125.248 36.7168V36.1357L123.348 36.252C122.391 36.3135 121.844 36.7373 121.844 37.4072C121.844 38.084 122.411 38.5283 123.266 38.5283ZM122.999 39.54C121.584 39.54 120.634 38.6855 120.634 37.4072C120.634 36.1904 121.57 35.4248 123.211 35.3291L125.248 35.2129V34.6182C125.248 33.75 124.674 33.2305 123.689 33.2305C122.773 33.2305 122.199 33.6611 122.049 34.3584H120.9C120.982 33.1279 122.035 32.1846 123.717 32.1846C125.385 32.1846 126.438 33.0869 126.438 34.502V39.417H125.31V38.1934H125.282C124.858 39.0068 123.956 39.54 122.999 39.54Z" fill="black" fill-opacity="0.4"/>
<path d="M116.778 39.54C115.22 39.54 114.092 38.7744 113.969 37.5713H115.172C115.309 38.1934 115.896 38.5557 116.778 38.5557C117.811 38.5557 118.385 38.0635 118.385 37.373C118.385 36.5732 117.852 36.2109 116.778 36.2109H115.712V35.2402H116.778C117.681 35.2402 118.146 34.8984 118.146 34.2012C118.146 33.6064 117.722 33.1758 116.806 33.1758C115.965 33.1758 115.377 33.5381 115.281 34.1055H114.126C114.276 32.9297 115.302 32.1846 116.806 32.1846C118.426 32.1846 119.308 32.9639 119.308 34.1055C119.308 34.8301 118.843 35.4727 118.132 35.6367V35.6914C119.068 35.8965 119.554 36.498 119.554 37.3184C119.554 38.6445 118.446 39.54 116.778 39.54Z" fill="black" fill-opacity="0.4"/>
<path d="M107.953 39.417H106.777V32.3076H107.953V37.5986H108.008L111.562 32.3076H112.738V39.417H111.562V34.126H111.508L107.953 39.417Z" fill="black" fill-opacity="0.4"/>
<path d="M103.4 38.4395V33.2852H100.734L100.516 36.2793C100.454 37.1611 100.27 37.9336 99.9346 38.3848V38.4395H103.4ZM99.0869 41.2969H97.9795V38.4395H98.5742C99.0938 38.0977 99.3467 37.209 99.415 36.252L99.6885 32.3076H104.583V38.4395H105.711V41.2969H104.604V39.417H99.0869V41.2969Z" fill="black" fill-opacity="0.4"/>
<path d="M97.0908 35.9717H92.6064V34.8643H97.0908V35.9717Z" fill="black" fill-opacity="0.4"/>
<path d="M85.2373 39.417V32.3076H86.3584V33.4424H86.3857C86.7822 32.6768 87.541 32.1846 88.6416 32.1846C90.2002 32.1846 91.1025 33.1895 91.1025 34.8027V39.417H89.9131V35.0146C89.9131 33.8662 89.373 33.2373 88.2793 33.2373C87.1582 33.2373 86.4268 34.0303 86.4268 35.2334V39.417H85.2373Z" fill="black" fill-opacity="0.4"/>
<path d="M80.7461 39.54C78.7773 39.54 77.4512 38.125 77.4512 35.8623C77.4512 33.5928 78.7773 32.1846 80.7461 32.1846C82.708 32.1846 84.0342 33.5928 84.0342 35.8623C84.0342 38.125 82.708 39.54 80.7461 39.54ZM80.7461 38.4941C82.0039 38.4941 82.8242 37.5371 82.8242 35.8623C82.8242 34.1875 82.0039 33.2305 80.7461 33.2305C79.4883 33.2305 78.6611 34.1875 78.6611 35.8623C78.6611 37.5371 79.4883 38.4941 80.7461 38.4941Z" fill="black" fill-opacity="0.4"/>
<path d="M75.0039 39.417V32.3076H76.1934V39.417H75.0039ZM75.5986 31.1113C75.1953 31.1113 74.8604 30.7764 74.8604 30.373C74.8604 29.9629 75.1953 29.6348 75.5986 29.6348C76.0088 29.6348 76.3438 29.9629 76.3438 30.373C76.3438 30.7764 76.0088 31.1113 75.5986 31.1113Z" fill="black" fill-opacity="0.4"/>
<path d="M71.1006 30.5918H72.29V32.3076H73.6709V33.2852H72.29V37.5098C72.29 38.1592 72.5635 38.4531 73.1719 38.4531C73.3086 38.4531 73.582 38.4326 73.6641 38.4189V39.417C73.5205 39.4512 73.1924 39.4717 72.9121 39.4717C71.6064 39.4717 71.1006 38.9385 71.1006 37.5713V33.2852H70.041V32.3076H71.1006V30.5918Z" fill="black" fill-opacity="0.4"/>
<path d="M66.0352 38.5283C67.1562 38.5283 68.0176 37.7422 68.0176 36.7168V36.1357L66.1172 36.252C65.1602 36.3135 64.6133 36.7373 64.6133 37.4072C64.6133 38.084 65.1807 38.5283 66.0352 38.5283ZM65.7686 39.54C64.3535 39.54 63.4033 38.6855 63.4033 37.4072C63.4033 36.1904 64.3398 35.4248 65.9805 35.3291L68.0176 35.2129V34.6182C68.0176 33.75 67.4434 33.2305 66.459 33.2305C65.543 33.2305 64.9688 33.6611 64.8184 34.3584H63.6699C63.752 33.1279 64.8047 32.1846 66.4863 32.1846C68.1543 32.1846 69.207 33.0869 69.207 34.502V39.417H68.0791V38.1934H68.0518C67.6279 39.0068 66.7256 39.54 65.7686 39.54Z" fill="black" fill-opacity="0.4"/>
<path d="M62.583 34.6387H61.4209C61.25 33.8662 60.6484 33.2305 59.6025 33.2305C58.3721 33.2305 57.5381 34.249 57.5381 35.8623C57.5381 37.5166 58.3857 38.4941 59.6162 38.4941C60.5869 38.4941 61.2227 37.9814 61.4277 37.127H62.5967C62.4121 38.542 61.2227 39.54 59.6094 39.54C57.6406 39.54 56.3281 38.1523 56.3281 35.8623C56.3281 33.6201 57.6338 32.1846 59.5957 32.1846C61.373 32.1846 62.4326 33.3604 62.583 34.6387Z" fill="black" fill-opacity="0.4"/>
<path d="M55.1318 32.3076V39.417H54.0039V38.2617H53.9766C53.5527 39.082 52.8145 39.54 51.7207 39.54C50.1689 39.54 49.2598 38.5352 49.2598 36.9219V32.3076H50.4492V36.71C50.4492 37.8652 50.9893 38.4873 52.0898 38.4873C53.2451 38.4873 53.9424 37.6943 53.9424 36.4844V32.3076H55.1318Z" fill="black" fill-opacity="0.4"/>
<path d="M44.2354 39.54C42.4238 39.54 41.1934 38.0908 41.1934 35.8623C41.1934 33.6338 42.417 32.1846 44.208 32.1846C45.2266 32.1846 46.0469 32.6836 46.4707 33.4629H46.498V29.5527H47.6875V39.417H46.5527V38.2139H46.5322C46.0742 39.0342 45.2607 39.54 44.2354 39.54ZM44.4609 33.2305C43.2031 33.2305 42.4102 34.2559 42.4102 35.8623C42.4102 37.4756 43.2031 38.4941 44.4609 38.4941C45.6846 38.4941 46.5049 37.4551 46.5049 35.8623C46.5049 34.2764 45.6846 33.2305 44.4609 33.2305Z" fill="black" fill-opacity="0.4"/>
<path d="M40.0996 38.3096V39.417H33.9883V29.5527H40.0996V30.6602H35.2188V33.8252H39.8467V34.9189H35.2188V38.3096H40.0996Z" fill="black" fill-opacity="0.4"/>
<path d="M27.0088 33.2715H25.3066V35.2607H26.8311C27.7266 35.2607 28.1572 34.9326 28.1572 34.249C28.1572 33.6201 27.7539 33.2715 27.0088 33.2715ZM26.9268 36.2178H25.3066V38.4531H27.1387C28 38.4531 28.4648 38.0635 28.4648 37.3457C28.4648 36.5869 27.9658 36.2178 26.9268 36.2178ZM24.1309 39.417V32.3076H27.1729C28.5059 32.3076 29.3193 32.998 29.3193 34.126C29.3193 34.8506 28.8066 35.5205 28.1504 35.6572V35.7119C29.0459 35.835 29.6338 36.4844 29.6338 37.373C29.6338 38.6309 28.7041 39.417 27.1934 39.417H24.1309Z" fill="black" fill-opacity="0.4"/>
<path d="M17.5342 39.417V30.8584H17.5068L14.8955 32.7383V31.4395L17.5205 29.5527H18.7236V39.417H17.5342Z" fill="black" fill-opacity="0.4"/>
<path d="M1.2168 39.417H0V29.5527H1.19629L6.34375 37.2637H6.45312V29.5527H7.66992V39.417H6.47363L1.32617 31.7334H1.2168V39.417ZM11.1973 34.167C9.87793 34.167 8.81836 33.251 8.81836 31.7881C8.81836 30.3252 9.87793 29.416 11.1973 29.416C12.5576 29.416 13.6377 30.3252 13.6377 31.7881C13.6377 33.251 12.5576 34.167 11.1973 34.167ZM11.1973 33.292C12.0039 33.292 12.5439 32.6973 12.5439 31.7881C12.5439 30.8652 12.0244 30.291 11.1973 30.291C10.4248 30.291 9.91211 30.8652 9.91211 31.7881C9.91211 32.6973 10.4248 33.292 11.1973 33.292ZM13.4668 36.0605H9.02344V34.9463H13.4668V36.0605Z" fill="black" fill-opacity="0.4"/>
<path d="M0.0429688 21.3695V0.0371094H8.14928C13.0862 0.0371094 15.9508 2.1094 15.9508 5.67496C15.9508 8.35675 14.3662 9.88049 11.9282 10.3986C14.7623 10.7643 16.7127 12.2575 16.7127 15.305C16.7127 19.023 13.7871 21.3695 8.54546 21.3695H0.0429688ZM8.27118 3.63314H4.6142V8.81387H8.27118C10.2216 8.81387 11.3796 7.8082 11.3796 6.22351C11.3796 4.63881 10.252 3.63314 8.27118 3.63314ZM8.57593 12.349H4.6142V17.743H8.57593C10.7701 17.743 12.0196 16.7373 12.0196 15.0917C12.0196 13.3546 10.7396 12.349 8.57593 12.349Z" fill="#202020"/>
<path d="M17.9547 21.3695V0.0371094H22.5259V21.3695H17.9547Z" fill="#202020"/>
<path d="M59.321 0.0367354L67.092 0.0367361L67.092 21.3691L59.321 21.3691C52.6774 21.3691 48.2586 17.0112 48.2586 10.7334C48.2586 4.48606 52.6774 0.0367349 59.321 0.0367354ZM62.5208 17.5598L62.5208 3.84609L59.321 3.84609C55.2373 3.84609 52.9517 6.68025 52.9517 10.7334C52.9517 14.817 55.2373 17.5598 59.321 17.5598L62.5208 17.5598Z" fill="#202020"/>
<path d="M28.3501 8.61295L31.8876 8.23776C32.0484 8.23776 32.2003 8.28242 32.3432 8.37175C32.504 8.46109 32.5844 8.57722 32.5844 8.72015C32.5844 8.86308 32.4147 9.00601 32.0752 9.14894C30.5744 9.73853 29.2523 10.0333 28.1089 10.0333C26.9654 10.0333 25.9739 9.78319 25.1341 9.28294C24.3123 8.76481 23.9014 7.99656 23.9014 6.97818C23.9014 5.63821 24.6339 4.42329 26.0989 3.33345C27.564 2.2436 29.3685 1.42175 31.5124 0.867893C33.6564 0.314037 35.7467 0.0371094 37.7835 0.0371094C39.8203 0.0371094 41.5444 0.224706 42.9558 0.599898C44.3851 0.957225 45.5643 1.55575 46.4933 2.39547C47.4224 3.23518 47.8869 4.2625 47.8869 5.47741C47.8869 6.29926 47.3956 7.11218 46.413 7.91616C45.4482 8.70228 44.3226 9.34547 43.0362 9.84573C41.7677 10.3281 40.5171 10.6676 39.2843 10.8641C38.9627 10.9713 38.8019 11.0785 38.8019 11.1857C38.8019 11.3286 39.8381 12.6418 41.9106 15.1252C44.001 17.5908 45.0462 19.0558 45.0462 19.5203C45.0462 19.9849 44.7692 20.4047 44.2154 20.7799C43.6794 21.173 43.0719 21.3695 42.393 21.3695C41.732 21.3695 41.1334 21.2802 40.5975 21.1015C40.0615 20.9407 39.5344 20.6817 39.0163 20.3243C38.516 19.967 38.0694 19.6275 37.6763 19.306C37.2833 18.9844 36.8455 18.5466 36.3631 17.9928C35.8986 17.4211 35.5502 16.9923 35.318 16.7064C34.514 15.6702 33.9244 14.8751 33.5492 14.3212C31.4767 16.8761 30.3511 18.234 30.1725 18.3948C30.0117 18.5377 29.8866 18.6538 29.7973 18.7432C29.7079 18.8146 29.6365 18.8772 29.5829 18.9308C29.4399 19.0737 29.2613 19.1452 29.0469 19.1452C28.8325 19.1452 28.6002 18.9218 28.3501 18.4752C28.4394 18.2429 28.9486 17.4568 29.8777 16.1168C30.8067 14.7768 31.5124 13.8478 31.9948 13.3297C32.2271 12.9902 32.3432 12.7758 32.3432 12.6865C32.3432 12.5971 32.236 12.481 32.0216 12.3381C31.6643 12.0522 31.4856 11.7485 31.4856 11.4269C31.4856 11.0874 31.7358 10.873 32.236 10.7837L34.3532 10.3817C35.9969 8.25562 36.9885 7.02285 37.3279 6.68339C37.6674 6.34393 38.0068 6.1742 38.3463 6.1742C38.6858 6.1742 38.8555 6.33499 38.8555 6.65659C38.8555 6.88885 38.6679 7.25511 38.2927 7.75537L36.7919 9.87253C36.9527 9.87253 37.7299 9.69386 39.1235 9.33654C40.5349 8.97921 42 8.48789 43.5186 7.86256C45.0372 7.23724 45.7966 6.65659 45.7966 6.1206C45.7966 5.33448 44.6888 4.94142 42.4734 4.94142C40.8297 4.94142 38.8644 5.14688 36.5775 5.55781C34.3085 5.96873 32.3432 6.46899 30.6816 7.05858C29.0379 7.6303 28.2161 8.13056 28.2161 8.55935C28.2161 8.59508 28.2608 8.61295 28.3501 8.61295Z" fill="#202020"/>
<path d="M81.511 21.3695L68.4678 21.3695L68.4678 0.0371094L73.039 0.0371098L73.039 17.4383L81.511 17.4383L81.511 21.3695Z" fill="#F25022"/>
<path d="M87.1389 21.3695L82.4153 21.3695L90.2168 0.0371113L95.7023 0.0371118L103.443 21.3695L98.5365 21.3695L96.8908 16.7069L88.7845 16.7069L87.1389 21.3695ZM92.8072 4.91309L90.0035 13.0194L95.6413 13.0194L92.8072 4.91309Z" fill="#F25022"/>
<path d="M105.401 21.3695L105.401 0.0371126L113.507 0.0371133C118.444 0.0371137 121.309 2.10941 121.309 5.67496C121.309 8.35675 119.724 9.8805 117.286 10.3986C120.12 10.7643 122.07 12.2575 122.07 15.305C122.07 19.023 119.145 21.3695 113.903 21.3695L105.401 21.3695ZM113.629 3.63315L109.972 3.63315L109.972 8.81387L113.629 8.81387C115.579 8.81388 116.737 7.8082 116.737 6.22351C116.737 4.63882 115.61 3.63315 113.629 3.63315ZM113.934 12.349L109.972 12.349L109.972 17.743L113.934 17.743C116.128 17.743 117.377 16.7373 117.377 15.0917C117.377 13.3546 116.097 12.349 113.934 12.349Z" fill="#F25022"/>
<rect x="125.604" y="0.833349" width="42.8237" height="19.7817" rx="9.89087" transform="rotate(-0.111603 125.604 0.833349)" fill="white" stroke="#2C4CEC" stroke-width="1.49774"/>
<path d="M133.029 14.4109C131.236 14.4144 130.154 13.3366 130.151 11.6696C130.147 9.99216 131.246 8.89966 132.913 8.89641C134.528 8.89327 135.62 9.89762 135.644 11.4807C135.644 11.638 135.634 11.8162 135.603 11.984L131.692 11.9916L131.693 12.065C131.726 12.8303 132.219 13.2907 132.964 13.2892C133.561 13.288 133.98 13.0251 134.105 12.5216L135.562 12.5188C135.396 13.5675 134.465 14.4081 133.029 14.4109ZM131.722 11.027L134.154 11.0223C134.048 10.362 133.597 9.99592 132.926 9.99723C132.286 9.99847 131.805 10.3873 131.722 11.027Z" fill="black"/>
<path d="M140.359 9.6158L140.354 6.99476L141.832 6.99188L141.846 14.3308L140.557 14.3333L140.409 13.5892C140.053 14.0512 139.529 14.3982 138.754 14.3997C137.307 14.4026 136.246 13.3457 136.243 11.6368C136.239 9.96981 137.296 8.88787 138.732 8.88507C139.477 8.88363 140.012 9.17614 140.359 9.6158ZM139.076 13.1934C139.884 13.1918 140.386 12.5618 140.384 11.6497C140.382 10.7271 139.878 10.0885 139.07 10.0901C138.263 10.0917 137.75 10.7217 137.752 11.6443C137.754 12.5669 138.269 13.195 139.076 13.1934Z" fill="black"/>
<path d="M143.262 12.7869L143.257 10.1868L142.366 10.1885L142.363 8.94091L143.254 8.93917L143.251 7.42945L144.73 7.42657L144.733 8.93629L145.97 8.93388L145.972 10.1815L144.735 10.1839L144.74 12.5429C144.74 12.9203 144.888 13.0773 145.275 13.0765L146.009 13.0751L146.012 14.3227L144.806 14.325C143.779 14.327 143.264 13.8143 143.262 12.7869Z" fill="black"/>
<path d="M149.277 14.3792C147.484 14.3827 146.402 13.305 146.399 11.638C146.396 9.96051 147.495 8.86801 149.162 8.86476C150.776 8.86162 151.868 9.86597 151.892 11.449C151.893 11.6063 151.883 11.7846 151.852 11.9524L147.941 11.96L147.941 12.0334C147.974 12.7987 148.468 13.259 149.212 13.2576C149.81 13.2564 150.228 12.9935 150.353 12.49L151.811 12.4871C151.645 13.5359 150.713 14.3764 149.277 14.3792ZM147.97 10.9954L150.403 10.9906C150.297 10.3303 149.845 9.96427 149.174 9.96558C148.535 9.96683 148.053 10.3557 147.97 10.9954Z" fill="black"/>
<path d="M155.243 14.3676C153.534 14.3709 152.494 13.3141 152.491 11.6156C152.488 9.94864 153.576 8.85616 155.285 8.85283C156.753 8.84997 157.666 9.645 157.879 10.9237L156.337 10.9267C156.21 10.3922 155.843 10.0574 155.266 10.0586C154.49 10.0601 153.999 10.7006 154.001 11.6127C154.002 12.5353 154.496 13.1634 155.272 13.1619C155.849 13.1608 156.236 12.814 156.34 12.2686L157.892 12.2656C157.684 13.5556 156.711 14.3648 155.243 14.3676Z" fill="black"/>
<path d="M161.736 8.84027C162.931 8.83794 163.918 9.47555 163.922 11.2998L163.927 14.2878L162.449 14.2907L162.444 11.4285C162.442 10.5478 162.085 10.0558 161.351 10.0572C160.596 10.0587 160.146 10.6047 160.148 11.5273L160.153 14.2951L158.675 14.298L158.661 6.9591L160.139 6.95622L160.144 9.56678C160.489 9.14674 160.971 8.84176 161.736 8.84027Z" fill="black"/>
</g>
<defs>
<clipPath id="clip0_1001_59">
<rect width="170" height="42" fill="white"/>
</clipPath>
</defs>
</svg>
